<?xml version="1.0" encoding="UTF-8"?>
<svg xmlns="http://www.w3.org/2000/svg" xmlns:xlink="http://www.w3.org/1999/xlink" width="32px" height="32px" viewBox="0 0 32 32" version="1.1">
<g id="surface1">
<path style=" stroke:none;fill-rule:nonzero;fill:rgb(100%,100%,100%);fill-opacity:1;" d="M 10.914062 29.277344 C 10.648438 28.984375 10.453125 28.65625 10.289062 28.308594 C 10.113281 27.9375 9.980469 27.546875 9.910156 27.140625 C 9.855469 26.820312 9.839844 26.503906 9.871094 26.179688 C 9.945312 25.398438 10.28125 24.742188 10.800781 24.171875 C 11.148438 23.792969 11.554688 23.480469 12 23.226562 C 12.441406 22.976562 12.902344 22.777344 13.390625 22.648438 C 13.734375 22.554688 14.082031 22.496094 14.4375 22.484375 C 14.691406 22.472656 14.945312 22.460938 15.199219 22.472656 C 15.511719 22.484375 15.820312 22.519531 16.125 22.589844 C 16.132812 22.589844 16.136719 22.585938 16.15625 22.585938 C 16.144531 22.472656 16.136719 22.363281 16.121094 22.253906 C 16.082031 21.945312 16.042969 21.644531 16.003906 21.339844 C 15.945312 20.898438 15.890625 20.460938 15.835938 20.023438 C 15.789062 19.65625 15.746094 19.289062 15.699219 18.921875 C 15.644531 18.503906 15.589844 18.085938 15.535156 17.667969 C 15.496094 17.359375 15.460938 17.046875 15.421875 16.734375 C 15.375 16.367188 15.324219 16.003906 15.277344 15.640625 C 15.246094 15.394531 15.21875 15.148438 15.1875 14.90625 C 15.132812 14.472656 15.078125 14.042969 15.023438 13.613281 C 14.992188 13.375 14.964844 13.140625 14.9375 12.90625 C 14.886719 12.527344 14.835938 12.152344 14.789062 11.773438 C 14.75 11.464844 14.710938 11.15625 14.675781 10.847656 C 14.65625 10.714844 14.644531 10.578125 14.625 10.445312 C 14.613281 10.347656 14.609375 10.34375 14.699219 10.300781 C 15.230469 10.039062 15.761719 9.777344 16.292969 9.515625 C 16.675781 9.324219 17.054688 9.136719 17.4375 8.949219 C 18.015625 8.660156 18.59375 8.375 19.171875 8.089844 C 19.765625 7.796875 20.355469 7.503906 20.949219 7.214844 C 21.53125 6.925781 22.117188 6.636719 22.703125 6.347656 C 23.296875 6.054688 23.886719 5.761719 24.476562 5.46875 C 24.941406 5.242188 25.410156 5.015625 25.875 4.789062 C 26.25 4.601562 26.621094 4.414062 26.996094 4.226562 C 27.511719 3.972656 28.027344 3.722656 28.542969 3.46875 C 28.777344 3.355469 29.007812 3.238281 29.238281 3.121094 C 29.542969 2.972656 29.847656 2.820312 30.152344 2.671875 C 30.171875 2.660156 30.191406 2.652344 30.21875 2.640625 C 30.226562 2.703125 30.230469 2.757812 30.234375 2.8125 C 30.246094 3.089844 30.261719 3.363281 30.277344 3.640625 C 30.289062 3.882812 30.304688 4.128906 30.316406 4.371094 C 30.332031 4.613281 30.347656 4.859375 30.359375 5.101562 C 30.375 5.34375 30.386719 5.582031 30.402344 5.824219 C 30.421875 6.097656 30.441406 6.371094 30.460938 6.648438 C 30.472656 6.855469 30.476562 7.066406 30.488281 7.273438 C 30.5 7.476562 30.515625 7.675781 30.527344 7.878906 C 30.535156 8.042969 30.542969 8.210938 30.554688 8.375 C 30.570312 8.652344 30.59375 8.925781 30.609375 9.203125 C 30.621094 9.390625 30.628906 9.582031 30.636719 9.773438 C 30.652344 10 30.664062 10.226562 30.679688 10.453125 C 30.6875 10.609375 30.691406 10.765625 30.703125 10.917969 C 30.71875 11.199219 30.742188 11.476562 30.757812 11.753906 C 30.769531 11.945312 30.777344 12.136719 30.789062 12.328125 C 30.800781 12.554688 30.8125 12.78125 30.824219 13.007812 C 30.835938 13.167969 30.839844 13.332031 30.851562 13.496094 C 30.871094 13.769531 30.890625 14.042969 30.90625 14.320312 C 30.917969 14.511719 30.925781 14.703125 30.9375 14.890625 C 30.949219 15.113281 30.960938 15.335938 30.972656 15.558594 C 30.984375 15.730469 30.992188 15.898438 31 16.070312 C 31.011719 16.261719 31.027344 16.457031 31.035156 16.652344 C 31.046875 16.816406 31.054688 16.984375 31.066406 17.148438 C 31.082031 17.429688 31.105469 17.707031 31.121094 17.984375 C 31.132812 18.167969 31.140625 18.355469 31.148438 18.539062 C 31.164062 18.765625 31.175781 18.996094 31.191406 19.226562 C 31.199219 19.386719 31.203125 19.542969 31.214844 19.703125 C 31.230469 19.980469 31.253906 20.253906 31.269531 20.527344 C 31.28125 20.726562 31.289062 20.925781 31.300781 21.125 C 31.304688 21.207031 31.3125 21.292969 31.3125 21.378906 C 31.3125 21.425781 31.308594 21.476562 31.292969 21.523438 C 31.085938 22.054688 30.796875 22.539062 30.417969 22.972656 C 30.019531 23.433594 29.546875 23.789062 29.007812 24.070312 C 28.425781 24.378906 27.808594 24.589844 27.15625 24.699219 C 26.804688 24.753906 26.449219 24.769531 26.097656 24.742188 C 25.390625 24.679688 24.75 24.453125 24.195312 24 C 23.800781 23.679688 23.496094 23.289062 23.253906 22.84375 C 23.003906 22.382812 22.816406 21.894531 22.730469 21.371094 C 22.695312 21.148438 22.671875 20.921875 22.683594 20.695312 C 22.714844 19.917969 22.984375 19.230469 23.464844 18.621094 C 23.882812 18.089844 24.398438 17.675781 24.988281 17.347656 C 25.460938 17.085938 25.953125 16.890625 26.480469 16.777344 C 26.757812 16.71875 27.03125 16.683594 27.3125 16.679688 C 27.398438 16.675781 27.484375 16.664062 27.566406 16.664062 C 28.144531 16.675781 28.710938 16.742188 29.265625 16.902344 C 29.28125 16.90625 29.296875 16.910156 29.328125 16.917969 C 29.074219 14.746094 28.820312 12.578125 28.566406 10.40625 C 25.027344 11.519531 21.5 12.636719 17.964844 13.75 C 17.964844 13.859375 17.964844 13.964844 17.96875 14.074219 C 17.96875 14.167969 17.980469 14.257812 17.984375 14.351562 C 17.996094 14.546875 18 14.738281 18.007812 14.933594 C 18.019531 15.128906 18.03125 15.324219 18.042969 15.515625 C 18.046875 15.589844 18.046875 15.664062 18.050781 15.742188 C 18.058594 15.933594 18.066406 16.128906 18.074219 16.324219 C 18.085938 16.632812 18.101562 16.941406 18.117188 17.246094 C 18.128906 17.546875 18.144531 17.847656 18.160156 18.148438 C 18.171875 18.457031 18.1875 18.765625 18.199219 19.074219 C 18.214844 19.371094 18.230469 19.667969 18.242188 19.964844 C 18.257812 20.269531 18.273438 20.578125 18.285156 20.886719 C 18.300781 21.1875 18.316406 21.488281 18.328125 21.789062 C 18.34375 22.097656 18.355469 22.402344 18.371094 22.710938 C 18.386719 23.003906 18.398438 23.300781 18.414062 23.59375 C 18.425781 23.84375 18.441406 24.09375 18.453125 24.34375 C 18.460938 24.539062 18.46875 24.734375 18.480469 24.929688 C 18.488281 25.125 18.503906 25.324219 18.511719 25.523438 C 18.519531 25.605469 18.519531 25.683594 18.519531 25.765625 C 18.527344 25.957031 18.535156 26.148438 18.542969 26.339844 C 18.554688 26.648438 18.570312 26.957031 18.582031 27.261719 C 18.585938 27.304688 18.578125 27.347656 18.5625 27.386719 C 18.417969 27.75 18.214844 28.082031 17.980469 28.398438 C 17.570312 28.949219 17.066406 29.402344 16.464844 29.742188 C 15.953125 30.027344 15.40625 30.21875 14.835938 30.339844 C 14.402344 30.429688 13.964844 30.464844 13.523438 30.445312 C 12.800781 30.414062 12.128906 30.226562 11.523438 29.816406 C 11.300781 29.664062 11.09375 29.492188 10.914062 29.277344 Z M 10.914062 29.277344 "/>
<path style=" stroke:none;fill-rule:nonzero;fill:rgb(46.27451%,81.568629%,99.215686%);fill-opacity:1;" d="M 7.507812 17.046875 C 7.5 16.90625 7.496094 16.769531 7.484375 16.632812 C 7.464844 16.429688 7.441406 16.222656 7.421875 16.019531 C 7.386719 15.6875 7.351562 15.351562 7.320312 15.019531 C 7.296875 14.738281 7.273438 14.460938 7.25 14.183594 C 7.214844 13.832031 7.179688 13.480469 7.144531 13.125 C 7.101562 12.714844 7.0625 12.304688 7.023438 11.890625 C 7 11.636719 6.976562 11.382812 6.953125 11.128906 C 6.917969 10.761719 6.882812 10.390625 6.847656 10.023438 C 6.804688 9.574219 6.761719 9.128906 6.71875 8.679688 C 6.679688 8.257812 6.636719 7.835938 6.597656 7.414062 C 6.5625 7.070312 6.535156 6.722656 6.503906 6.378906 C 6.492188 6.28125 6.484375 6.179688 6.472656 6.082031 C 7.34375 5.441406 8.214844 4.804688 9.097656 4.15625 C 9.105469 4.226562 9.109375 4.273438 9.113281 4.320312 C 9.121094 4.523438 9.125 4.726562 9.132812 4.929688 C 9.144531 5.128906 9.15625 5.332031 9.167969 5.53125 C 9.171875 5.617188 9.175781 5.703125 9.175781 5.789062 C 9.183594 5.988281 9.191406 6.191406 9.199219 6.394531 C 9.210938 6.714844 9.226562 7.039062 9.242188 7.359375 C 9.253906 7.675781 9.269531 7.988281 9.285156 8.304688 C 9.296875 8.625 9.3125 8.949219 9.328125 9.269531 C 9.339844 9.582031 9.355469 9.894531 9.367188 10.203125 C 9.382812 10.464844 9.394531 10.726562 9.40625 10.988281 C 9.417969 11.195312 9.421875 11.402344 9.433594 11.605469 C 9.441406 11.8125 9.457031 12.015625 9.46875 12.222656 C 9.472656 12.300781 9.472656 12.382812 9.476562 12.464844 C 9.480469 12.667969 9.488281 12.871094 9.496094 13.070312 C 9.511719 13.398438 9.523438 13.722656 9.539062 14.046875 C 9.554688 14.359375 9.566406 14.671875 9.582031 14.984375 C 9.597656 15.308594 9.609375 15.632812 9.625 15.960938 C 9.640625 16.269531 9.652344 16.582031 9.667969 16.894531 C 9.683594 17.21875 9.695312 17.542969 9.710938 17.871094 C 9.71875 18.019531 9.726562 18.167969 9.730469 18.316406 C 9.746094 18.644531 9.761719 18.972656 9.773438 19.304688 C 9.78125 19.453125 9.789062 19.601562 9.796875 19.75 C 9.808594 20.015625 9.824219 20.28125 9.835938 20.546875 C 9.84375 20.730469 9.855469 20.914062 9.859375 21.097656 C 9.867188 21.421875 9.777344 21.730469 9.671875 22.03125 C 9.453125 22.652344 9.09375 23.183594 8.617188 23.632812 C 8.308594 23.921875 7.964844 24.160156 7.597656 24.363281 C 7.042969 24.671875 6.464844 24.902344 5.84375 25.03125 C 5.617188 25.078125 5.390625 25.101562 5.164062 25.132812 C 4.90625 25.167969 4.652344 25.167969 4.398438 25.144531 C 3.515625 25.078125 2.726562 24.773438 2.070312 24.167969 C 1.5625 23.695312 1.179688 23.140625 0.941406 22.488281 C 0.832031 22.1875 0.777344 21.878906 0.761719 21.5625 C 0.722656 20.648438 1.027344 19.839844 1.539062 19.101562 C 2.09375 18.300781 2.8125 17.679688 3.691406 17.246094 C 4.160156 17.015625 4.652344 16.863281 5.164062 16.769531 C 5.382812 16.730469 5.605469 16.707031 5.828125 16.699219 C 6.308594 16.675781 6.777344 16.738281 7.222656 16.921875 C 7.316406 16.960938 7.40625 17.011719 7.503906 17.054688 C 7.507812 17.054688 7.515625 17.054688 7.519531 17.058594 C 7.515625 17.054688 7.511719 17.050781 7.507812 17.046875 Z M 7.507812 17.046875 "/>
<path style=" stroke:none;fill-rule:nonzero;fill:rgb(0%,0%,0%);fill-opacity:1;" d="M 7.507812 17.046875 C 7.511719 17.050781 7.515625 17.054688 7.519531 17.058594 C 7.515625 17.054688 7.507812 17.054688 7.507812 17.046875 C 7.511719 17.042969 7.511719 17.042969 7.507812 17.046875 Z M 7.507812 17.046875 "/>
</g>
</svg>
